<?xml version="1.0" encoding="utf-8"?>
<!-- Generator: Adobe Illustrator 25.4.1, SVG Export Plug-In . SVG Version: 6.00 Build 0)  -->
<svg version="1.1" id="Layer_1" xmlns="http://www.w3.org/2000/svg" xmlns:xlink="http://www.w3.org/1999/xlink" x="0px" y="0px"
	 viewBox="0 0 400 300" style="enable-background:new 0 0 400 300;" xml:space="preserve">
<style type="text/css">
	.st0{fill:#0309B0;}
	.st1{fill:#0C0C0C;}
	.st2{fill:#AEE0FF;}
	.st3{fill:#093F68;}
	.st4{fill:#FFFFFF;}
	.st5{fill:#0F0F0F;}
	.st6{fill:#EBF7FF;}
	.st7{fill:#FFBC0E;}
	.st8{fill:#F56132;}
	.st9{fill:#70CC40;}
	.st10{fill:#DFEAEF;}
</style>
<path class="st0" d="M360.2,34.5v183.6c0,8.8-7.2,16-16,16l0,0H79.6c-4.4,0-8.6-1.8-11.7-5.1c-2.8-3-4.3-6.9-4.3-10.9V34.5
	c0-8.8,7.2-16,16-16c0,0,0,0,0,0h264.6C353.1,18.5,360.2,25.7,360.2,34.5C360.2,34.5,360.2,34.5,360.2,34.5z"/>
<path class="st1" d="M344.2,236H79.6c-9.9,0-17.9-8-17.9-17.9V34.5c0-9.9,8-17.9,17.9-17.9h264.6c9.9,0,17.9,8,17.9,17.9v183.6
	C362.1,228,354.1,236,344.2,236L344.2,236z M79.6,20.4c-7.8,0-14.1,6.3-14.1,14.1v183.6c0,3.6,1.3,7,3.8,9.6
	c2.7,2.8,6.4,4.5,10.3,4.5h264.6c7.8,0,14.1-6.3,14.1-14.1V34.5c0-7.8-6.3-14.1-14.1-14.1L79.6,20.4z"/>
<path class="st2" d="M79.5,33.2h264.7v156.8H79.5L79.5,33.2z"/>
<path class="st1" d="M344.2,192H79.5c-1,0-1.9-0.9-1.9-1.9V33.2c0-1,0.9-1.9,1.9-1.9h264.7c1,0,1.9,0.9,1.9,1.9v156.8
	C346.1,191.1,345.3,192,344.2,192z M81.4,188.2h260.9v-153H81.4V188.2z"/>
<path class="st0" d="M246.8,234.1H177c0,0,6.4,20.6-19.7,43.7h109.2C240.4,254.7,246.8,234.1,246.8,234.1z"/>
<path class="st1" d="M266.5,279.7H157.3c-0.8,0-1.5-0.5-1.8-1.2c-0.3-0.7-0.1-1.6,0.5-2.1c24.9-22.1,19.2-41.5,19.1-41.8
	c-0.2-0.6-0.1-1.2,0.3-1.7c0.4-0.5,0.9-0.8,1.5-0.8h69.9c0.6,0,1.2,0.3,1.5,0.8c0.4,0.5,0.5,1.1,0.3,1.7
	c-0.2,0.8-5.7,19.8,19.1,41.8c0.6,0.5,0.8,1.4,0.5,2.1C268,279.2,267.3,279.7,266.5,279.7L266.5,279.7z M162,275.9h99.6
	c-18.2-18-18.1-33.9-17.2-39.9h-65.1C180.2,242,180.3,257.9,162,275.9L162,275.9z"/>
<circle class="st3" cx="211.9" cy="210.5" r="6.9"/>
<path class="st3" d="M211.9,219.3c-4.9,0-8.9-3.9-8.9-8.8s3.9-8.9,8.8-8.9c4.9,0,8.9,3.9,8.9,8.8c0,0,0,0,0,0
	C220.7,215.4,216.8,219.3,211.9,219.3z M211.9,205.4c-2.8,0-5.1,2.2-5.1,5c0,2.8,2.2,5.1,5,5.1c2.8,0,5.1-2.2,5.1-5c0,0,0,0,0,0
	C216.9,207.7,214.7,205.4,211.9,205.4z"/>
<path class="st0" d="M147.8,277.8H276c2.9,0,5.2,2.3,5.2,5.2l0,0c0,2.9-2.3,5.2-5.2,5.2H147.8c-2.9,0-5.2-2.3-5.2-5.2l0,0
	C142.7,280.1,145,277.8,147.8,277.8z"/>
<path class="st1" d="M276,290.1H147.8c-3.9-0.2-6.9-3.5-6.7-7.4c0.2-3.6,3.1-6.5,6.7-6.7H276c3.9,0.2,6.9,3.5,6.7,7.4
	C282.5,287,279.6,289.9,276,290.1z M147.8,279.7c-1.8,0.1-3.2,1.7-3,3.5c0.1,1.6,1.4,2.9,3,3H276c1.8-0.1,3.2-1.7,3-3.5
	c-0.1-1.6-1.4-2.9-3-3H147.8z"/>
<path class="st0" d="M46,11.8h264.7v156.8H46V11.8z"/>
<path class="st1" d="M310.7,170.5H46c-1,0-1.9-0.9-1.9-1.9V11.8c0-1,0.9-1.9,1.9-1.9h264.7c1,0,1.9,0.9,1.9,1.9v156.8
	C312.6,169.7,311.8,170.5,310.7,170.5z M47.9,166.7h260.9v-153H47.9V166.7z"/>
<path class="st4" d="M310.7,11.8v156.8H194.7c-33.6-46.9-33.6-109.9,0-156.8L310.7,11.8z"/>
<g>
	<path class="st5" d="M310.7,170.5H194.7c-0.6,0-1.2-0.3-1.5-0.8c-34.1-47.5-34.1-111.5,0-159c0.4-0.5,0.9-0.8,1.5-0.8h116.1
		c1,0,1.9,0.9,1.9,1.9v156.8C312.7,169.7,311.8,170.5,310.7,170.5C310.8,170.5,310.8,170.5,310.7,170.5z M195.6,166.7h113.2v-153
		H195.5C163.2,59.6,163.2,120.9,195.6,166.7L195.6,166.7z"/>
	<path class="st6" d="M111.9,50.9H73c-1,0-1.9-0.9-1.9-1.9s0.9-1.9,1.9-1.9h38.9c1,0,1.9,0.9,1.9,1.9S113,50.9,111.9,50.9z"/>
	<path class="st6" d="M137.1,105.8H72.9c-1,0-1.9-0.9-1.9-1.9s0.9-1.9,1.9-1.9h64.2c1,0,1.9,0.9,1.9,1.9S138.2,105.8,137.1,105.8z"
		/>
	<path class="st6" d="M137.1,87.8H72.9c-1,0-1.9-0.9-1.9-1.9s0.9-1.9,1.9-1.9h64.2c1,0,1.9,0.9,1.9,1.9S138.2,87.8,137.1,87.8z"/>
</g>
<path class="st7" d="M80.2,126.1h49.6c4.1,0,7.3,3.3,7.3,7.3v0c0,4-3.3,7.3-7.3,7.3H80.2c-4.1,0-7.3-3.3-7.3-7.3v0
	C72.9,129.4,76.2,126.1,80.2,126.1z"/>
<path class="st6" d="M129.8,142.6H80.2c-5.1,0.2-9.4-3.7-9.6-8.8c-0.2-5.1,3.7-9.4,8.8-9.6c0.3,0,0.6,0,0.8,0h49.6
	c5.1-0.2,9.4,3.7,9.6,8.8c0.2,5.1-3.7,9.4-8.8,9.6C130.4,142.7,130.1,142.7,129.8,142.6z M80.2,128c-3-0.2-5.6,2.1-5.7,5.1
	c-0.2,3,2.1,5.6,5.1,5.7c0.2,0,0.4,0,0.6,0h49.6c3,0.2,5.6-2.1,5.7-5.1c0.2-3-2.1-5.6-5.1-5.7c-0.2,0-0.4,0-0.6,0H80.2z"/>
<circle class="st8" cx="63" cy="26" r="4.5"/>
<path class="st6" d="M63,21.5c2.5,0,4.5,2,4.5,4.5s-2,4.5-4.5,4.5c-2.5,0-4.5-2-4.5-4.5c0,0,0,0,0,0C58.5,23.5,60.5,21.5,63,21.5
	C63,21.5,63,21.5,63,21.5 M63,18.7c-4.1,0-7.4,3.3-7.4,7.4c0,4.1,3.3,7.4,7.4,7.4c4.1,0,7.4-3.3,7.4-7.4c0,0,0,0,0,0
	C70.3,22,67,18.7,63,18.7z"/>
<circle class="st7" cx="81.9" cy="26" r="4.5"/>
<path class="st6" d="M81.9,21.5c2.5,0,4.5,2,4.5,4.5c0,2.5-2,4.5-4.5,4.5c-2.5,0-4.5-2-4.5-4.5c0,0,0,0,0,0
	C77.4,23.5,79.4,21.5,81.9,21.5C81.9,21.5,81.9,21.5,81.9,21.5 M81.9,18.7c-4.1,0-7.4,3.3-7.4,7.4c0,4.1,3.3,7.4,7.4,7.4
	c4.1,0,7.4-3.3,7.4-7.4c0,0,0,0,0,0C89.3,22,86,18.7,81.9,18.7z"/>
<circle class="st9" cx="100.9" cy="26" r="4.5"/>
<path class="st6" d="M100.9,21.5c2.5,0,4.5,2,4.5,4.5s-2,4.5-4.5,4.5c-2.5,0-4.5-2-4.5-4.5c0,0,0,0,0,0
	C96.4,23.5,98.4,21.5,100.9,21.5 M100.9,18.7c-4.1,0-7.4,3.3-7.4,7.4c0,4.1,3.3,7.4,7.4,7.4c4.1,0,7.4-3.3,7.4-7.4c0,0,0,0,0,0
	C108.3,22,105,18.7,100.9,18.7z"/>
<path class="st10" d="M178.4,110.9c-0.5,0-0.9-0.2-1.3-0.5c-0.8-0.7-0.9-1.9-0.2-2.7l43.6-50.3c0.4-0.4,0.9-0.6,1.5-0.6
	c0.6,0,1.1,0.3,1.5,0.7l39.1,49.7c0.7,0.8,0.5,2-0.3,2.7c0,0,0,0,0,0c-0.8,0.6-2,0.5-2.7-0.3l-37.7-47.9l-42.1,48.5
	C179.5,110.7,179,110.9,178.4,110.9L178.4,110.9z"/>
<path class="st10" d="M303.8,105.8c-0.6,0-1.2-0.3-1.5-0.8l-24.7-33.1l-25.3,23.6c-0.7,0.8-1.9,0.8-2.7,0.1
	c-0.8-0.7-0.8-1.9-0.1-2.7c0.1-0.1,0.1-0.1,0.2-0.2l26.9-25c0.4-0.4,0.9-0.6,1.5-0.5c0.5,0.1,1,0.3,1.3,0.8l26,34.8
	c0.6,0.8,0.5,2-0.4,2.7l0,0C304.6,105.7,304.2,105.8,303.8,105.8z"/>
<path class="st10" d="M291.9,32.4h-36c-1,0-1.9-0.9-1.9-1.9c0-1,0.9-1.9,1.9-1.9h36c1,0,1.9,0.9,1.9,1.9
	C293.8,31.6,293,32.4,291.9,32.4L291.9,32.4z"/>
<path class="st4" d="M335,161.2l-48.1-12.7c-0.9-0.2-1.8,0.3-2,1.2c-0.1,0.3-0.1,0.6,0,0.8l12.7,48.1c0.2,0.9,1.1,1.4,2,1.2
	c0.3-0.1,0.5-0.2,0.7-0.4l10.4-10.4l21.1,21.1c0.6,0.6,1.7,0.6,2.3,0c0,0,0,0,0,0l12.2-12.2c0.6-0.6,0.6-1.7,0-2.3c0,0,0,0,0,0
	l-21.1-21.1l10.4-10.4c0.6-0.6,0.6-1.7,0-2.3C335.5,161.4,335.2,161.3,335,161.2L335,161.2z"/>
<path class="st1" d="M333.1,212.4c-0.9,0-1.8-0.4-2.5-1l-19.8-19.8l-9.1,9.1c-0.9,0.9-2.2,1.2-3.4,0.9c-1.2-0.3-2.2-1.3-2.5-2.5
	l-12.7-48.1c-0.5-1.9,0.6-3.8,2.5-4.3c0.6-0.2,1.2-0.2,1.8,0l48.1,12.7c1.9,0.5,3,2.4,2.5,4.3c-0.2,0.6-0.5,1.1-0.9,1.6l-9.1,9.1
	l19.8,19.8c1.4,1.4,1.4,3.6,0,5l-12.2,12.2C334.9,212,334,212.4,333.1,212.4L333.1,212.4z M310.8,186.9c0.5,0,1,0.2,1.3,0.6
	l20.9,20.9l11.8-11.8l-20.9-20.9c-0.7-0.7-0.7-1.9,0-2.7l10.1-10.1l-47.2-12.5l12.5,47.2l10.2-10.1
	C309.9,187.2,310.3,187,310.8,186.9L310.8,186.9z"/>
<path class="st1" d="M363.3,290.1H50.5c-1,0-1.9-0.9-1.9-1.9c0-1,0.9-1.9,1.9-1.9h312.8c1,0,1.9,0.9,1.9,1.9
	C365.2,289.2,364.4,290.1,363.3,290.1z"/>
</svg>
