<svg height="73" viewBox="0 0 73 73" width="73" xmlns="http://www.w3.org/2000/svg"><g fill="none" fill-rule="nonzero"><rect fill="#fff" height="71" rx="14" stroke="#173d60" stroke-width="2" width="71" x="1" y="1"/><g transform="translate(13 13)"><path d="m47 7.94150546v.16207885c-.0810394 2.26874549-1.9449463 4.05161279-4.2136917 4.05161279h-4.6999282c-.4862367 0-.8103944.3241577-.8103944.8103944v29.9827956h-20.0156631l11.3448028-5.1861648 4.45681-4.4571686c.2431183-.2431183.3241577-.6483154.1620789-.9724731l-.1620789-.4048386c-.1620788-.3241577-.4862365-.4862365-.8100357-.4862365l-6.3207168.4051971-16.20716857 7.3738708-3.72745516 1.7018281c-.72935491.405197-1.13455201 1.2155913-.89143377 2.0259856h-.89143367c-2.26874544 0-4.13265235-1.7828674-4.21369173-4.0519714v-.1620789c.08103938-2.1877059 1.86390691-3.8895339 4.05161288-3.8895339h4.86200707c.48623666 0 .81039438-.3241577.81039438-.8103944v-29.98279562h33.22437277c2.187706 0 3.9705735 1.70182795 4.0516129 3.88989258z" fill="#285680"/><path d="m47 8.10358431v34.84480279c0 2.2687455-1.7828674 4.0516129-4.0516129 4.0516129h-4.862007c-.4862367 0-.8103944-.3241577-.8103944-.8103943v-33.2240142c0-.4862367.3241577-.8103944.8103944-.8103944h4.6999282c2.2687454 0 4.1326523-1.7828673 4.2136917-4.05161279z" fill="#4482c3"/><path d="m9.72401433.81039429v33.22401421c0 .4862367-.32415772.8103944-.81039438.8103944h-4.86200707c-2.18770597 0-3.9705735 1.701828-4.05161288 3.8895339v-34.68272392c0-1.05351262.4051971-2.10666659 1.21559148-2.8360214.81039419-.72935491 1.78250878-1.21559148 2.8360214-1.21559148h4.86200707c.48623666 0 .81039438.32415772.81039438.81039429z" fill="#4482c3"/><path d="m32.4136199 16.20681h-2.0256271c-.3241577-.8103943-.7293548-1.6204299-1.2966308-2.2687454l1.0535126-1.7828675c.2431182-.4051971.0810394-.8914337-.3241577-1.1345519l-2.8363801-1.62078859c-.4051971-.24311833-.8910751-.08103947-1.1341934.32415772l-1.0535125 1.78286737c-.8914338-.1620788-1.7828675-.1620788-2.6743011 0l-.9724732-1.78286737c-.2431183-.40519719-.7289963-.48623667-1.1341934-.32415772l-2.8363801 1.62078859c-.4051971.2431182-.4862366.7293548-.3241577 1.1345519l1.0535126 1.7828675c-.567276.6483155-.9724731 1.4583511-1.2966308 2.2687454h-2.0256271c-.4051972 0-.8103944.4051972-.8103944.8103943v3.2415771c0 .485878.3241577.8100357.8103944.8100357h2.0256271c.3241577.8103943.7293548 1.6207886 1.2966308 2.269104l-.9724731 1.7828675c-.2431184.4051971-.0810395.8914337.3241577 1.134552l2.83638 1.62043c.4051971.2431182.8910751.0810394 1.1341934-.3241577l1.0535125-1.7825089c.8914338.1620789 1.7828675.1620789 2.6743012 0l1.0535126 1.7825089c.2431183.4051971.7289963.4862365 1.1341934.3241577l2.83638-1.62043c.4051971-.2431183.4862366-.7293549.3241578-1.134552l-1.0535127-1.7828675c.5672761-.6483154 1.0535127-1.4587097 1.2966309-2.269104h2.0256272c.4051971 0 .8103942-.4051972.8103942-.8100357v-3.2415771c-.1620788-.4051971-.4862365-.8103943-.9724732-.8103943z" fill="#f29c1f"/><path d="m25.9311829 18.6379928c0 1.3425293-1.0886536 2.4308243-2.4311829 2.4308243s-2.4311829-1.088295-2.4311829-2.4308243 1.0886536-2.4311828 2.4311829-2.4311828 2.4311829 1.0886535 2.4311829 2.4311828z" fill="#a56a43"/><path d="m3.24121859 27.5516129c-.48587801 0-.81003573-.3241577-.81003573-.8103943v-17.82759865c0-.48587792.32415772-.81003564.81003573-.81003564.48623657 0 .81039429.32415772.81039429.81003564v17.82759865c0 .4862366-.32415772.8103943-.81039429.8103943z" fill="#b0d3f0"/><path d="m3.24121859 6.48279574c-.48587801 0-.81003573-.32415772-.81003573-.81039429v-1.62078857c0-.48623658.32415772-.81039429.81003573-.81039429.48623657 0 .81039429.32415771.81039429.81039429v1.62078857c0 .48623657-.32415772.81039429-.81039429.81039429z" fill="#b0d3f0"/><path d="m35.1689606 32.3325806-1.9449463.8103943c.1620788-.2431183.1620788-.567276.0810394-.8103943v-.0806809l-.1620788-.3241577c-.0810395-.1620788-.1620789-.2431183-.3241578-.3241577l1.7828675-.7293549c.2431183-.0810394.567276-.0810394.8103943.0810395.2431182.1620788.3241577.4862366.3241577.7293548-.1620789.3241577-.3241577.567276-.567276.6479569z" fill="#2c2f38"/><path d="m28.6051254 37.7622223-11.3448028 5.1861648-4.8620072 2.187706-2.67430107-5.8344802 16.20716857-7.4549103z" fill="#f0c419"/><path d="m21.3929749 38.3291397c-.4051972 0-.729355-.2427596-.8103943-.6479568-.0806809-.4051972.0810393-.7293549.4862365-.8914337l5.9155197-2.6743012c.4051972-.1620789.8914338 0 1.0535126.4051972.1620789.4051971 0 .8914337-.4051971 1.0535125l-5.9155197 2.6739426c-.1620789.0810394-.2431183.0810394-.3241577.0810394z" fill="#000"/><path d="m11.0206452 43.0294266c-.4051972 0-.7293549-.2431183-.8103944-.6483154-.0810394-.4051972.0810395-.7293549.4862367-.8914338l6.6448745-2.9984588c.4051972-.1620789.8914337 0 1.0535126.4051971.1620789.4051972 0 .8914337-.4051972 1.0535126l-6.6448745 2.9984588c-.0810395.0810395-.1620789.0810395-.3241577.0810395z" fill="#000"/><path d="m12.3983154 45.1360931-3.72745513 1.701828c-.81039429.4051972-1.78286743 0-2.10702515-.8103942l-1.37767024-2.9170609c0-.0810394-.08103948-.0810394-.08103948-.1620789-.24311824-.8103943.08103948-1.6207886.89143377-2.0259856l3.72745516-1.7018281z" fill="#fb7b76"/><path d="m33.1429749 33.1429749c0 .0810394-.0810395.0810394-.0810395.1620788l-4.45681 4.4571686-2.6739425-5.9155197 6.3207168-.4051971c.1617202 0 .3237992 0 .485878.0810393.1620789.0810395.2431183.2431184.3241577.3241578l.1620789.3241577v.0810394c.1620788.3237992.0810394.6479569-.0810394.8910752z" fill="#fdd7ad"/></g></g></svg>