<?xml version="1.0" encoding="utf-8"?>
<!-- Generator: Adobe Illustrator 25.4.1, SVG Export Plug-In . SVG Version: 6.00 Build 0)  -->
<svg version="1.1" id="Layer_1" xmlns="http://www.w3.org/2000/svg" xmlns:xlink="http://www.w3.org/1999/xlink" x="0px" y="0px"
	 viewBox="0 0 501.6 501.6" style="enable-background:new 0 0 501.6 501.6;" xml:space="preserve">
<style type="text/css">
	.st0{fill:#020202;}
	.st1{fill:#FFFFFF;}
	.st2{fill:#AAAAAA;}
	.st3{fill:#D1D1D1;}
	.st4{fill:#4B4C4C;}
	.st5{fill:#F2F2F2;}
	.st6{fill:#0309B0;}
	.st7{fill:#FF7058;}
</style>
<path class="st0" d="M480.7,80.5H20.9C9.4,80.5,0,89.9,0,101.4v308.2c0,11.5,9.4,20.9,20.9,20.9h459.8c11.5,0,20.9-9.4,20.9-20.9
	V101.4C501.6,89.9,492.1,80.5,480.7,80.5z"/>
<path class="st1" d="M31.3,111.8h438.9v257H31.3L31.3,111.8z"/>
<path class="st2" d="M154.6,431.5h191.2V488H154.6L154.6,431.5z"/>
<path class="st3" d="M97.2,488h307.2v13.6H97.2L97.2,488z"/>
<path class="st4" d="M154.6,431.5h191.2v15.7H154.6L154.6,431.5z"/>
<path class="st0" d="M478.6,305.1H368.8c-6.3,0-10.4,4.2-10.4,10.4v175.5c0,6.3,4.2,10.4,10.4,10.4h109.7c6.3,0,10.4-4.2,10.4-10.4
	V315.6C489,310.3,484.8,305.1,478.6,305.1z"/>
<path class="st1" d="M374.4,333.9h99.3v133.7h-99.3L374.4,333.9z"/>
<path class="st5" d="M374.1,467.1l99.3-133.7v133.7L374.1,467.1z"/>
<path class="st6" d="M439.9,314.5h-32.4c-1,0-2.1,1-2.1,2.1s1,2.1,2.1,2.1h32.4c1,0,2.1-1,2.1-2.1S440.9,314.5,439.9,314.5z"/>
<circle class="st6" cx="423.2" cy="481.7" r="7.3"/>
<ellipse class="st5" cx="250.8" cy="400.2" rx="12.5" ry="12.5"/>
<path class="st6" d="M372,87.8c0-2.1,0-4.2,0-6.3C372,36.6,335.4,0,290.5,0c-26.1,0-49.1,12.5-64.8,31.3c-5.2-1-11.5-2.1-16.7-2.1
	c-32.4,0-59.6,23-65.8,53.3c-19.9,4.2-34.5,21.9-34.5,43.9c0,25.1,19.9,44.9,44.9,44.9H349c25.1,0,44.9-19.9,44.9-44.9
	C392.9,109.7,384.5,96.1,372,87.8z"/>
<path class="st0" d="M351.1,194.4v-33.4l-16.7-6.3c-2.1-7.3-4.2-13.6-8.4-19.9l7.3-15.7l-24-24l-15.7,7.3
	c-6.3-3.1-12.5-6.3-19.9-8.4l-6.3-16.7h-33.4L227.8,94c-7.3,2.1-13.6,4.2-19.9,8.4l-15.7-7.3l-24,24l7.3,15.7
	c-3.1,6.3-6.3,12.5-8.4,19.9l-16.7,6.3v33.4l16.7,6.3c2.1,7.3,4.2,13.6,8.4,19.9l-7.3,15.7l24,24l15.7-7.3
	c6.3,3.1,12.5,6.3,19.9,8.4l6.3,16.7h33.4l6.3-16.7c7.3-2.1,13.6-4.2,19.9-8.4l15.7,7.3l24-24l-7.3-15.7c3.1-6.3,6.3-12.5,8.4-19.9
	L351.1,194.4z M291.5,177.6c0,23-18.8,40.8-40.8,40.8c-23,0-40.8-17.8-40.8-40.8s18.8-40.8,40.8-40.8
	C273.8,136.9,291.5,154.6,291.5,177.6z"/>
<path class="st7" d="M294.7,133.7c-24-24-62.7-24-86.7,0s-24,62.7,0,86.7s62.7,24,86.7,0C318.7,197.5,318.7,157.8,294.7,133.7
	L294.7,133.7z M280,206.9c-15.7,15.7-41.8,15.7-57.5,0s-15.7-41.8,0-57.5s41.8-15.7,57.5,0S295.7,190.2,280,206.9z"/>
</svg>
