<?xml version="1.0" encoding="utf-8"?>
<!-- Generator: Adobe Illustrator 25.4.1, SVG Export Plug-In . SVG Version: 6.00 Build 0)  -->
<svg version="1.1" id="Layer_1" xmlns="http://www.w3.org/2000/svg" xmlns:xlink="http://www.w3.org/1999/xlink" x="0px" y="0px"
	 viewBox="0 0 595.3 841.9" style="enable-background:new 0 0 595.3 841.9;" xml:space="preserve">
<style type="text/css">
	.st0{fill:none;}
	.st1{fill:url(#SVGID_1_);}
	.st2{fill:url(#SVGID_00000065783748433247332460000000362818534658042804_);}
	.st3{fill-rule:evenodd;clip-rule:evenodd;fill:#0309B0;}
	.st4{fill:#FFFFFF;}
</style>
<path class="st0" d="M43.8,145.1H541v497.2H43.8L43.8,145.1z"/>
<linearGradient id="SVGID_1_" gradientUnits="userSpaceOnUse" x1="258.2003" y1="409.02" x2="393.6766" y2="70.2125" gradientTransform="matrix(0.8 0 0 -0.8 0 673.5119)">
	<stop  offset="0" style="stop-color:#7A8597"/>
	<stop  offset="1" style="stop-color:#4E505D"/>
</linearGradient>
<path class="st1" d="M235.5,328.6L235.5,328.6c-0.2,0.2-0.3,0.3-0.5,0.5l-9.9,5.4c-9.5,5.6-18.5,12.2-27,19.8
	c14.5,12.6,26,28.6,33.1,46.9l0,0l0,0c17.4,45.3,5.1,96.2-29.4,128.6l40.7,105.3l-1.4,6.9c-1.3,6.3-3.8,11.8-7,16.5h15.8
	c0-0.3,0-0.5,0-0.8l0.3-67c0.1-13.2,10.9-23.9,24.1-23.8c1.8,0,3.7,0.2,5.4,0.7c-0.3-6.7,2.3-13.1,7-17.9l142.2-142.2
	c-20.8-35.5-48.3-62.6-79.8-78.3c-16.6,9.3-35.7,14.7-56.1,14.7C272.1,344.1,252.4,338.5,235.5,328.6z M166.3,390.2
	c-23.3,33.2-39.9,75.6-47,124c2.7,0.1,5.3,0,8-0.3l17.7-1.6l14.9-10c27.5-18.4,38.4-53,26.6-83.9
	C182.2,407.4,175.2,397.7,166.3,390.2z M448.8,455.6L337.5,566.9l27.4,27.4l97.3-97.3c-2.7-13.3-6.2-26.1-10.3-38.2L448.8,455.6z
	 M469,557.9l-87.2,87.2c-4.7,4.7-11.2,7.2-17.9,7c0.5,2.2,0.7,4.4,0.6,6.7h56.8v0c19.8-0.3,36.4-11,42-25.8
	c3.7-20.8,5.7-42.7,5.7-65.3C469.1,564.4,469.1,561.1,469,557.9z M115.4,567.8c0,23.1,2.1,45.5,6.1,66.8
	c4.7,10.6,15.2,18.9,28.4,22.3L115.4,567.8z"/>
<linearGradient id="SVGID_00000109746830924695877030000017299155461091799957_" gradientUnits="userSpaceOnUse" x1="342.2267" y1="657.9542" x2="399.7857" y2="447.0893" gradientTransform="matrix(0.8809 0 0 -0.8874 -34.2792 711.6223)">
	<stop  offset="0" style="stop-color:#7A8597"/>
	<stop  offset="1" style="stop-color:#4E505D"/>
</linearGradient>
<ellipse style="fill:url(#SVGID_00000109746830924695877030000017299155461091799957_);" cx="293" cy="222.9" rx="96.2" ry="96.4"/>
<path class="st3" d="M497.1,373.3L473,397.5l61.3,61.3l24.2-24.2C553.4,400.9,532.8,378.7,497.1,373.3L497.1,373.3z M448.8,421.7
	L303.6,566.9l61.3,61.3L510,483L448.8,421.7L448.8,421.7z M274.1,591l-0.3,67l66.9-0.3L274.1,591z"/>
<path class="st3" d="M151.4,354.6c-21-7.2-44-6.8-64.7,1.2c-48.6,18.8-72.8,73.4-54,122c15.2,39.4,54.7,63.8,96.7,59.9L174.4,654
	c13.8,10,39.7,0,43.2-16.7l-44.5-115c36.7-24.5,51.5-71.2,35.6-112.4C198.8,383.9,177.8,363.7,151.4,354.6L151.4,354.6z"/>
<path class="st4" d="M185.8,416.7c14,36.9-4.3,78.5-40.9,92.8c-36.7,14.4-77.7-3.8-91.8-40.7c-14-36.9,4.3-78.5,40.9-92.8
	C130.6,361.6,171.7,379.8,185.8,416.7z"/>
</svg>
