<?xml version="1.0" encoding="utf-8"?>
<!-- Generator: Adobe Illustrator 25.4.1, SVG Export Plug-In . SVG Version: 6.00 Build 0)  -->
<svg version="1.1" id="Layer_1" xmlns="http://www.w3.org/2000/svg" xmlns:xlink="http://www.w3.org/1999/xlink" x="0px" y="0px"
	 viewBox="0 0 382 378" style="enable-background:new 0 0 382 378;" xml:space="preserve">
<style type="text/css">
	.st0{fill:#FFFFFF;}
	.st1{fill:#313553;}
	.st2{fill:#1728FF;}
	.st3{fill:#0309B0;}
	.st4{fill:#FFE8BB;}
	.st5{fill:none;stroke:#313553;stroke-width:0.772;stroke-linecap:round;stroke-linejoin:round;}
</style>
<path class="st0" d="M81.7,251.5H44.9v16.6h36.9V251.5z"/>
<path class="st0" d="M81.7,275.5H44.9v16.6h36.9V275.5z"/>
<path class="st0" d="M81.7,299.5H44.9v46h36.9V299.5z"/>
<path class="st0" d="M312.8,67.7c2.1,0,4.2,0.6,6,1.8c1.8,1.2,3.1,2.9,4,4.8c0.8,2,1,4.1,0.6,6.2c-0.4,2.1-1.4,4-2.9,5.5
	c-1.5,1.5-3.4,2.5-5.5,2.9c-2.1,0.4-4.2,0.2-6.2-0.6c-2-0.8-3.6-2.2-4.8-4c-1.2-1.8-1.8-3.8-1.8-6c0-2.9,1.1-5.6,3.2-7.6
	C307.2,68.8,310,67.7,312.8,67.7L312.8,67.7z"/>
<path class="st0" d="M312.8,118.2c2.1,0,4.2,0.6,6,1.8c1.8,1.2,3.2,2.9,4,4.8c0.8,2,1,4.1,0.6,6.2c-0.4,2.1-1.4,4-2.9,5.5
	c-1.5,1.5-3.4,2.5-5.5,2.9c-2.1,0.4-4.2,0.2-6.2-0.6c-2-0.8-3.6-2.2-4.8-4c-1.2-1.8-1.8-3.8-1.8-6c0-2.9,1.1-5.6,3.1-7.6
	C307.2,119.3,310,118.2,312.8,118.2z"/>
<path class="st0" d="M32.5,111c11.3,0,20.5-9.2,20.5-20.5c0-11.3-9.2-20.5-20.5-20.5S12,79.3,12,90.6C12,101.9,21.2,111,32.5,111z"
	/>
<path class="st1" d="M220.4,52.1c2,0,3.7-1.6,3.7-3.7c0-2-1.6-3.7-3.7-3.7s-3.7,1.6-3.7,3.7C216.7,50.4,218.3,52.1,220.4,52.1z"/>
<path class="st1" d="M79,71.4c2,0,3.7-1.6,3.7-3.7c0-2-1.6-3.7-3.7-3.7s-3.7,1.6-3.7,3.7C75.4,69.7,77,71.4,79,71.4z"/>
<path class="st2" d="M50.5,209.2c1.4,0,2.9,0.4,4.1,1.2s2.1,1.9,2.7,3.3s0.7,2.8,0.4,4.2c-0.3,1.4-1,2.7-2,3.7c-1,1-2.3,1.7-3.7,2
	c-1.4,0.3-2.9,0.1-4.2-0.4c-1.3-0.6-2.5-1.5-3.3-2.7c-0.8-1.2-1.2-2.6-1.2-4.1c0-1,0.2-1.9,0.6-2.8c0.4-0.9,0.9-1.7,1.6-2.4
	c0.7-0.7,1.5-1.2,2.4-1.6C48.6,209.4,49.5,209.2,50.5,209.2z"/>
<path class="st2" d="M298.8,39.6c4,0,7.3-3.3,7.3-7.3c0-4-3.3-7.3-7.3-7.3s-7.3,3.3-7.3,7.3C291.5,36.3,294.8,39.6,298.8,39.6z"/>
<path class="st2" d="M159.4,1c1.4,0,2.9,0.4,4.1,1.2c1.2,0.8,2.1,1.9,2.7,3.3s0.7,2.8,0.4,4.2c-0.3,1.4-1,2.7-2,3.7
	c-1,1-2.3,1.7-3.7,2c-1.4,0.3-2.9,0.1-4.2-0.4s-2.5-1.5-3.3-2.7c-0.8-1.2-1.2-2.6-1.2-4.1c0-1,0.2-1.9,0.6-2.8
	c0.4-0.9,0.9-1.7,1.6-2.4c0.7-0.7,1.5-1.2,2.4-1.6C157.5,1.2,158.5,1,159.4,1z"/>
<path class="st2" d="M18.5,39.6c4,0,7.3-3.3,7.3-7.3c0-4-3.3-7.3-7.3-7.3c-4,0-7.3,3.3-7.3,7.3C11.1,36.3,14.4,39.6,18.5,39.6z"/>
<path class="st3" d="M276.9,224.7l-9.1,1.3c-2,0-3.9-0.7-5.4-2.1c-1.5-1.3-2.4-3.2-2.5-5.2c0,0,0-0.1,0-0.1c-0.3-1.9,0-3.9,1-5.6
	c1-1.7,2.6-2.9,4.5-3.6l9-1.3c-0.5,0.2-5.4,1.8-4.2,9.6c0.2,1.8,0.9,3.4,2.1,4.7C273.6,223.7,275.2,224.5,276.9,224.7L276.9,224.7z"
	/>
<path class="st3" d="M339.7,59.9v110.4c0,0.7-0.3,1.3-0.8,1.8c-0.5,0.5-1.1,0.8-1.8,0.8h-48.7c-0.7,0-1.3-0.3-1.8-0.8
	c-0.5-0.5-0.8-1.1-0.8-1.8V59.9c0-0.7,0.3-1.3,0.8-1.8c0.5-0.5,1.1-0.8,1.8-0.8h48.7c0.7,0,1.3,0.3,1.8,0.8
	C339.5,58.6,339.7,59.2,339.7,59.9z M323.6,78.5c0-2.1-0.6-4.2-1.8-6c-1.2-1.8-2.9-3.1-4.8-4c-2-0.8-4.1-1-6.2-0.6
	c-2.1,0.4-4,1.4-5.5,2.9c-1.5,1.5-2.5,3.4-2.9,5.5s-0.2,4.3,0.6,6.2c0.8,2,2.2,3.6,4,4.8c1.8,1.2,3.9,1.8,6,1.8
	c2.9,0,5.6-1.1,7.6-3.1C322.4,84.1,323.6,81.3,323.6,78.5L323.6,78.5z M323.6,128.9c0-2.1-0.6-4.2-1.8-6c-1.2-1.8-2.9-3.1-4.8-4
	c-2-0.8-4.1-1-6.2-0.6c-2.1,0.4-4,1.4-5.5,2.9c-1.5,1.5-2.5,3.4-2.9,5.5c-0.4,2.1-0.2,4.3,0.6,6.2c0.8,2,2.2,3.6,4,4.8
	c1.8,1.2,3.9,1.8,6,1.8c2.9,0,5.6-1.1,7.6-3.2C322.4,134.5,323.6,131.8,323.6,128.9L323.6,128.9z"/>
<path class="st3" d="M91.4,244.1v110.4c0,0.7-0.3,1.3-0.8,1.8c-0.5,0.5-1.1,0.8-1.8,0.8H40.1c-0.7,0-1.3-0.3-1.8-0.8
	s-0.8-1.1-0.8-1.8V244.1c0-0.7,0.3-1.3,0.8-1.8c0.5-0.5,1.1-0.8,1.8-0.8h48.7c0.3,0,0.7,0.1,1,0.2c0.3,0.1,0.6,0.3,0.8,0.6
	c0.2,0.2,0.4,0.5,0.6,0.8C91.4,243.5,91.4,243.8,91.4,244.1L91.4,244.1z M81.7,345.5v-46H44.9v46H81.7z M81.7,292.1v-16.6H44.9v16.6
	H81.7z M81.7,268.1v-16.6H44.9v16.6L81.7,268.1z"/>
<path class="st3" d="M200.4,35.9v110.4c0,0.7-0.3,1.3-0.8,1.8c-0.5,0.5-1.1,0.8-1.8,0.8h-48.7c-0.7,0-1.3-0.3-1.8-0.8
	c-0.5-0.5-0.7-1.1-0.7-1.8V35.9c0-0.7,0.3-1.3,0.8-1.8c0.5-0.5,1.1-0.8,1.8-0.8h48.7c0.7,0,1.3,0.3,1.8,0.8
	C200.1,34.5,200.4,35.2,200.4,35.9L200.4,35.9z"/>
<path class="st3" d="M59.4,59.9v110.4c0,0.3-0.1,0.7-0.2,1c-0.1,0.3-0.3,0.6-0.6,0.8c-0.2,0.2-0.5,0.4-0.8,0.6s-0.6,0.2-1,0.2H8.1
	c-0.3,0-0.7-0.1-1-0.2c-0.3-0.1-0.6-0.3-0.8-0.6c-0.2-0.2-0.4-0.5-0.6-0.8s-0.2-0.6-0.2-1V59.9c0-0.3,0.1-0.7,0.2-1
	c0.1-0.3,0.3-0.6,0.6-0.8s0.5-0.4,0.8-0.6c0.3-0.1,0.6-0.2,1-0.2h48.7c0.7,0,1.3,0.3,1.8,0.7S59.4,59.2,59.4,59.9L59.4,59.9z
	 M52.9,90.6c0-4-1.2-8-3.4-11.4c-2.2-3.4-5.4-6-9.2-7.5s-7.9-2-11.8-1.2s-7.6,2.7-10.5,5.6c-2.9,2.9-4.8,6.5-5.6,10.5
	s-0.4,8.1,1.2,11.8c1.5,3.7,4.2,6.9,7.5,9.2c3.4,2.2,7.3,3.4,11.4,3.4c5.4,0,10.6-2.2,14.5-6S52.9,96,52.9,90.6z"/>
<path class="st1" d="M268.4,62.3c0.7,0,1.4,0.2,2.1,0.6c0.6,0.4,1.1,1,1.4,1.7c0.3,0.7,0.4,1.4,0.2,2.1c-0.1,0.7-0.5,1.4-1,1.9
	c-0.5,0.5-1.2,0.9-1.9,1c-0.7,0.1-1.5,0.1-2.1-0.2c-0.7-0.3-1.2-0.8-1.7-1.4c-0.4-0.6-0.6-1.3-0.6-2.1c0-1,0.4-1.9,1.1-2.6
	C266.5,62.7,267.4,62.3,268.4,62.3L268.4,62.3z"/>
<path class="st1" d="M268.4,101.7c2,0,3.7-1.6,3.7-3.7s-1.7-3.7-3.7-3.7s-3.7,1.6-3.7,3.7S266.4,101.7,268.4,101.7z"/>
<path class="st1" d="M268.4,117.7c2,0,3.7-1.6,3.7-3.7s-1.7-3.7-3.7-3.7s-3.7,1.6-3.7,3.7S266.4,117.7,268.4,117.7z"/>
<path class="st1" d="M268.4,126.4c0.7,0,1.4,0.2,2,0.6c0.6,0.4,1.1,1,1.4,1.7c0.3,0.7,0.4,1.4,0.2,2.1c-0.1,0.7-0.5,1.4-1,1.9
	c-0.5,0.5-1.2,0.9-1.9,1c-0.7,0.1-1.5,0.1-2.1-0.2c-0.7-0.3-1.3-0.8-1.7-1.4c-0.4-0.6-0.6-1.3-0.6-2c0-0.5,0.1-1,0.3-1.4
	c0.2-0.4,0.5-0.9,0.8-1.2c0.3-0.3,0.7-0.6,1.2-0.8C267.5,126.5,267.9,126.4,268.4,126.4L268.4,126.4z"/>
<path class="st1" d="M111.1,282c0.7,0,1.4,0.2,2.1,0.6c0.6,0.4,1.1,1,1.4,1.7c0.3,0.7,0.4,1.4,0.2,2.1c-0.1,0.7-0.5,1.4-1,1.9
	c-0.5,0.5-1.2,0.9-1.9,1c-0.7,0.1-1.5,0.1-2.1-0.2c-0.7-0.3-1.3-0.8-1.7-1.4s-0.6-1.3-0.6-2c0-1,0.4-1.9,1.1-2.6
	S110.1,282,111.1,282L111.1,282z"/>
<path class="st1" d="M111.1,314.1c0.7,0,1.4,0.2,2,0.6c0.6,0.4,1.1,1,1.4,1.7c0.3,0.7,0.4,1.4,0.2,2.1c-0.1,0.7-0.5,1.4-1,1.9
	c-0.5,0.5-1.2,0.9-1.9,1c-0.7,0.1-1.5,0.1-2.1-0.2c-0.7-0.3-1.2-0.8-1.7-1.4c-0.4-0.6-0.6-1.3-0.6-2c0-1,0.4-1.9,1.1-2.6
	S110.1,314.1,111.1,314.1L111.1,314.1z"/>
<path class="st1" d="M194.4,216.4c2.9,0.3,5.9,0.1,8.8-0.6c6.4-1.7,10-8.5,10-8.5c2.2,3.1,4.8,5.9,7.8,8.4l-28.4,3.9
	c0.7-1,1.3-2,1.9-3.1L194.4,216.4z"/>
<path class="st4" d="M182.7,194c7.3-10.2,25.9-25.9,38.3-27.2c3.4-0.3,19.4,6.7,31.9,12.3c0,0,29.2-1,33.2,3.5
	c16.7,18.8,31.3,70.1,34.1,75.8c2.8,5.7,43.9,28.6,57.5,35.7v83l-80.2-48.5c-5.1,0.6-10.2,0.6-15.3,0c-43.1-8.4-100.8-52-112-57.2
	c-8.2-3.8-10.2-11.8-11.2-17.1c-0.2-1.5-0.6-3-1-4.4c-0.7-1.4-1.6-2.7-2.8-3.9c-1.4-1.5-3-3-4.4-4.4c-1.1-1.1-2.2-2.3-3.2-3.5
	c-1.1-1.6-1.8-3.4-1.8-5.4s0.4-3.9,1.4-5.5c0.8-1.4,1.7-2.6,2.8-3.8c4-4,13.5-0.6,13.9-0.4c0.4-2.9,1.5-5.7,3.2-8
	c6-9.4,7.4-14.5,9.5-17.3c0.7-0.9,1.6-1.7,2.7-2.1C180.1,195.2,181.3,194.7,182.7,194L182.7,194z M194.4,216.4v0.1
	c-0.6,1.1-1.2,2.1-1.9,3.1c-2.7,4.1-6.7,7.3-11.2,9.1c-0.6,0.2-1.2,0.4-1.8,0.5c2.5,2.5,4.6,5.4,6.3,8.5c0.4,0.8,0.8,1.6,1.2,2.5
	c0,0,22.1,13.7,25.7,15.7c0,0,22.7-12.1,29.7-15.4c0,0-7.4-7.6-9-9.6l34.7-4.8l9.1-1.3l4-0.6c2.2-0.3,4.2-1.5,5.5-3.3
	c1.3-1.8,1.9-4,1.6-6.2c-0.3-2.2-1.5-4.2-3.3-5.5c-1.8-1.3-4-1.9-6.2-1.6l-4.1,0.6c0,0,0,0,0,0l-9,1.3l-44.6,6.2
	c-2.9-2.5-5.5-5.3-7.8-8.4c0,0-3.6,6.8-10,8.5C200.3,216.5,197.3,216.7,194.4,216.4L194.4,216.4z"/>
<g>
	<path class="st5" d="M377.8,294.1c-13.6-7-54.7-30-57.5-35.7c-2.8-5.7-17.5-57-34.1-75.8c-4-4.5-33.2-3.5-33.2-3.5"/>
	<path class="st5" d="M164,222.9c-0.4-0.1-9.9-3.5-13.9,0.4c-1.1,1.1-2.1,2.4-2.8,3.8c-1,1.7-1.5,3.6-1.4,5.5s0.7,3.8,1.8,5.4
		c1,1.2,2,2.4,3.2,3.5c1.4,1.4,3.1,3,4.4,4.4c1.1,1.1,2.1,2.4,2.8,3.9c0.5,1.5,0.8,2.9,1,4.4c1,5.3,3,13.3,11.2,17.1
		c11.2,5.2,68.9,48.8,112,57.2c5.1,0.6,10.2,0.6,15.3,0l80.2,48.5"/>
	<path class="st5" d="M179.4,229.3L179.4,229.3c2.5,2.5,4.6,5.4,6.3,8.5c0.4,0.8,0.8,1.6,1.2,2.5c0,0,22.1,13.7,25.7,15.7
		c0,0,22.7-12.1,29.7-15.4c0,0-7.4-7.6-9-9.6l0,0"/>
	<path class="st5" d="M155.2,245.9c0,0,2.3-8.5,4.3-10.7s-3.1-7.4-6.2-9.6"/>
	<path class="st5" d="M162.7,247.5c-1.2,1.8-4.2,4.6-3.7,6.8"/>
	<path class="st5" d="M221,215.8C221,215.8,220.9,215.8,221,215.8c-3-2.5-5.6-5.4-7.9-8.5c0,0-3.6,6.8-10,8.5
		c-2.9,0.7-5.8,0.9-8.8,0.6c-1.3-0.1-2.5-0.3-3.7-0.6"/>
	<path class="st5" d="M194.4,216.6c-0.6,1.1-1.2,2.1-1.9,3.1c-2.7,4.1-6.7,7.3-11.2,9.1c-0.6,0.2-1.2,0.4-1.8,0.5
		c-0.3,0.1-0.7,0.1-1,0.2c-7.9,1.4-14.8-0.4-14.4-6.6c0.4-2.9,1.5-5.7,3.2-8c6-9.4,7.4-14.5,9.5-17.3c0.7-0.9,1.6-1.7,2.7-2.1
		c0.8-0.3,2-0.8,3.4-1.5c6.2-2.7,17.1-7.8,24.4-11.6c9-4.7,11.8-3.7,17.1-1.4s32.4,17.5,32.4,17.5"/>
	<path class="st5" d="M266.9,185.3c-2.6-1-7.8-3.4-14-6.2c-12.5-5.6-28.6-12.6-31.9-12.3c-12.4,1.3-31,17-38.3,27.2"/>
	<path class="st5" d="M192.5,219.7l28.4-3.9l44.6-6.2"/>
	<path class="st5" d="M267.9,226.1l-34.7,4.8l-46.8,6.5"/>
	<path class="st5" d="M140.2,231.3l-9,5.5l7.2,1.9l1.6,0.4l10.5,2.7"/>
	<path class="st5" d="M147.2,227.1l-7,4.2"/>
	<path class="st5" d="M276.9,224.7l-9.1,1.3c-2,0-3.9-0.7-5.4-2.1c-1.5-1.3-2.4-3.2-2.5-5.2c0,0,0-0.1,0-0.1c-0.3-1.9,0-3.9,1-5.6
		c1-1.7,2.6-2.9,4.5-3.6l9-1.3"/>
	<path class="st5" d="M276.9,224.7l4-0.6c2.2-0.3,4.2-1.5,5.5-3.3c1.3-1.8,1.9-4,1.6-6.2c-0.3-2.2-1.5-4.2-3.3-5.5
		c-1.8-1.3-4-1.9-6.2-1.6l-4.1,0.6c0,0,0,0,0,0c-0.5,0.2-5.4,1.8-4.2,9.6c0.1,1.8,0.9,3.4,2.1,4.7
		C273.6,223.7,275.2,224.5,276.9,224.7L276.9,224.7z"/>
	<path class="st5" d="M131.2,236.8l-4.6,0.4"/>
	<path class="st5" d="M56.8,178.9H8.1c-2.7,0-5.4-1.1-7.3-3c-1.9-1.9-3-4.6-3-7.3V60c0-2.7,1.1-5.4,3-7.3c1.9-1.9,4.6-3,7.3-3h48.8
		c2.7,0,5.4,1.1,7.3,3s3,4.6,3,7.3v108.6c0,2.7-1.1,5.4-3,7.3S59.6,178.9,56.8,178.9z"/>
	<path class="st5" d="M56.8,172.9H8.1c-0.3,0-0.7-0.1-1-0.2c-0.3-0.1-0.6-0.3-0.8-0.6c-0.2-0.2-0.4-0.5-0.6-0.8s-0.2-0.6-0.2-1V59.9
		c0-0.3,0.1-0.7,0.2-1c0.1-0.3,0.3-0.6,0.6-0.8s0.5-0.4,0.8-0.6c0.3-0.1,0.6-0.2,1-0.2h48.7c0.7,0,1.3,0.3,1.8,0.7s0.8,1.1,0.8,1.8
		v110.4c0,0.3-0.1,0.7-0.2,1c-0.1,0.3-0.3,0.6-0.6,0.8c-0.2,0.2-0.5,0.4-0.8,0.6S57.1,172.9,56.8,172.9L56.8,172.9z"/>
	<path class="st5" d="M18.4,53.4h25.7"/>
	<path class="st5" d="M48.7,33.1H31.3"/>
	<path class="st5" d="M18.5,39.6c4,0,7.3-3.3,7.3-7.3c0-4-3.3-7.3-7.3-7.3c-4,0-7.3,3.3-7.3,7.3C11.1,36.3,14.4,39.6,18.5,39.6z"/>
	<path class="st5" d="M88.9,363.1H40.1c-1.4,0-2.7-0.3-3.9-0.8c-1.3-0.5-2.4-1.3-3.3-2.2c-1-1-1.7-2.1-2.2-3.3
		c-0.5-1.2-0.8-2.6-0.8-3.9V244.2c0-1.4,0.3-2.7,0.8-3.9c0.5-1.3,1.3-2.4,2.2-3.3c1-1,2.1-1.7,3.3-2.2s2.6-0.8,3.9-0.8h48.8
		c2.7,0,5.4,1.1,7.3,3c1.9,1.9,3,4.6,3,7.3v108.6c0,2.7-1.1,5.4-3,7.3C94.3,362,91.6,363.1,88.9,363.1L88.9,363.1z"/>
	<path class="st5" d="M88.9,357.1H40.1c-0.7,0-1.3-0.3-1.8-0.8s-0.8-1.1-0.8-1.8V244.1c0-0.7,0.3-1.3,0.8-1.8
		c0.5-0.5,1.1-0.8,1.8-0.8h48.7c0.3,0,0.7,0.1,1,0.2c0.3,0.1,0.6,0.3,0.8,0.6c0.2,0.2,0.4,0.5,0.6,0.8c0.1,0.3,0.2,0.6,0.2,1v110.4
		c0,0.7-0.3,1.3-0.8,1.8C90.2,356.8,89.5,357.1,88.9,357.1L88.9,357.1z"/>
	<path class="st5" d="M50.4,237.7h25.7"/>
	<path class="st5" d="M80.7,217.3H63.3"/>
	<path class="st5" d="M57.8,216.5c0,1.4-0.4,2.9-1.2,4.1c-0.8,1.2-1.9,2.1-3.3,2.7c-1.3,0.6-2.8,0.7-4.2,0.4c-1.4-0.3-2.7-1-3.7-2
		c-1-1-1.7-2.3-2-3.7s-0.1-2.9,0.4-4.2c0.6-1.3,1.5-2.5,2.7-3.3c1.2-0.8,2.6-1.2,4.1-1.2c1.9,0,3.8,0.8,5.2,2.1
		S57.8,214.6,57.8,216.5z"/>
	<path class="st5" d="M197.8,154.8H149c-1.4,0-2.7-0.3-3.9-0.8s-2.4-1.3-3.3-2.2c-1-1-1.7-2.1-2.2-3.3c-0.5-1.2-0.8-2.6-0.8-3.9
		V35.9c0-1.4,0.3-2.7,0.8-3.9c0.5-1.3,1.3-2.4,2.2-3.3c1-1,2.1-1.7,3.3-2.2c1.3-0.5,2.6-0.8,3.9-0.8h48.8c1.4,0,2.7,0.3,3.9,0.8
		c1.2,0.5,2.4,1.3,3.3,2.2c1,1,1.7,2.1,2.2,3.3c0.5,1.3,0.8,2.6,0.8,3.9v108.6c0,1.4-0.3,2.7-0.8,3.9s-1.3,2.4-2.2,3.3
		c-1,1-2.1,1.7-3.3,2.2C200.5,154.6,199.2,154.8,197.8,154.8L197.8,154.8z"/>
	<path class="st5" d="M197.8,148.8h-48.7c-0.7,0-1.3-0.3-1.8-0.8c-0.5-0.5-0.8-1.1-0.8-1.8V35.9c0-0.7,0.3-1.3,0.8-1.8
		c0.5-0.5,1.1-0.8,1.8-0.8h48.7c0.7,0,1.3,0.3,1.8,0.8c0.5,0.5,0.8,1.1,0.8,1.8v110.4c0,0.7-0.3,1.3-0.8,1.8
		C199.1,148.6,198.5,148.8,197.8,148.8L197.8,148.8z"/>
	<path class="st5" d="M159.4,29.4h25.7"/>
	<path class="st5" d="M189.6,9.1h-17.4"/>
	<path class="st5" d="M166.7,8.3c0,1.4-0.4,2.9-1.2,4.1c-0.8,1.2-1.9,2.1-3.3,2.7c-1.3,0.6-2.8,0.7-4.2,0.4s-2.7-1-3.7-2
		c-1-1-1.7-2.3-2-3.7c-0.3-1.4-0.1-2.9,0.4-4.2c0.6-1.3,1.5-2.5,2.7-3.3c1.2-0.8,2.6-1.2,4.1-1.2c1,0,1.9,0.2,2.8,0.6
		c0.9,0.4,1.7,0.9,2.4,1.6c0.7,0.7,1.2,1.5,1.6,2.4S166.7,7.3,166.7,8.3L166.7,8.3z"/>
	<path class="st5" d="M337.2,178.9h-48.8c-2.7,0-5.4-1.1-7.3-3c-1.9-1.9-3-4.6-3-7.3V60c0-2.7,1.1-5.4,3-7.3c1.9-1.9,4.6-3,7.3-3
		h48.8c1.4,0,2.7,0.3,3.9,0.8c1.2,0.5,2.4,1.3,3.3,2.2c1,1,1.7,2.1,2.2,3.3c0.5,1.3,0.8,2.6,0.8,3.9v108.6c0,1.4-0.3,2.7-0.8,3.9
		c-0.5,1.3-1.3,2.4-2.2,3.3s-2.1,1.7-3.3,2.2C339.9,178.6,338.6,178.9,337.2,178.9L337.2,178.9z"/>
	<path class="st5" d="M337.2,172.9h-48.7c-0.7,0-1.3-0.3-1.8-0.8c-0.5-0.5-0.8-1.1-0.8-1.8V59.9c0-0.7,0.3-1.3,0.8-1.8
		c0.5-0.5,1.1-0.8,1.8-0.8h48.7c0.7,0,1.3,0.3,1.8,0.8c0.5,0.5,0.8,1.1,0.8,1.8v110.4c0,0.7-0.3,1.3-0.8,1.8
		C338.5,172.6,337.8,172.9,337.2,172.9z"/>
	<path class="st5" d="M298.7,53.4h25.7"/>
	<path class="st5" d="M329,33.1h-17.4"/>
	<path class="st5" d="M298.8,39.6c4,0,7.3-3.3,7.3-7.3c0-4-3.3-7.3-7.3-7.3s-7.3,3.3-7.3,7.3C291.5,36.3,294.8,39.6,298.8,39.6z"/>
	<path class="st5" d="M114.8,285.7c0,0.7-0.2,1.4-0.6,2s-1,1.1-1.7,1.4s-1.4,0.4-2.1,0.2c-0.7-0.1-1.4-0.5-1.9-1
		c-0.5-0.5-0.9-1.2-1-1.9c-0.1-0.7-0.1-1.5,0.2-2.1c0.3-0.7,0.8-1.2,1.4-1.7s1.3-0.6,2-0.6c0.5,0,1,0.1,1.4,0.3
		c0.4,0.2,0.9,0.5,1.2,0.8c0.3,0.3,0.6,0.8,0.8,1.2C114.7,284.8,114.8,285.2,114.8,285.7L114.8,285.7z"/>
	<path class="st5" d="M114.8,317.8c0,0.7-0.2,1.4-0.6,2c-0.4,0.6-1,1.1-1.7,1.4c-0.7,0.3-1.4,0.4-2.1,0.2s-1.4-0.5-1.9-1
		c-0.5-0.5-0.9-1.2-1-1.9c-0.1-0.7-0.1-1.5,0.2-2.1c0.3-0.7,0.8-1.3,1.4-1.7c0.6-0.4,1.3-0.6,2-0.6c0.5,0,1,0.1,1.4,0.3
		c0.4,0.2,0.9,0.5,1.2,0.8c0.3,0.3,0.6,0.7,0.8,1.2C114.7,316.8,114.8,317.3,114.8,317.8L114.8,317.8z"/>
	<path class="st5" d="M115.2,317.8H214v-18.4"/>
	<path class="st5" d="M79,71.4c2,0,3.7-1.6,3.7-3.7c0-2-1.6-3.7-3.7-3.7s-3.7,1.6-3.7,3.7C75.4,69.7,77,71.4,79,71.4z"/>
	<path class="st5" d="M82.7,67.7h28.4v117.4h79.2"/>
	<path class="st5" d="M120.9,237.2h-6.1v-39.6h61.9h0"/>
	<path class="st5" d="M272.1,66c0,0.7-0.2,1.4-0.6,2c-0.4,0.6-1,1.1-1.7,1.4c-0.7,0.3-1.4,0.4-2.1,0.2c-0.7-0.1-1.4-0.5-1.9-1
		s-0.9-1.2-1-1.9c-0.1-0.7-0.1-1.5,0.2-2.1c0.3-0.7,0.8-1.2,1.4-1.7c0.6-0.4,1.3-0.6,2-0.6c1,0,1.9,0.4,2.6,1.1
		C271.7,64.1,272.1,65,272.1,66L272.1,66z"/>
	<path class="st5" d="M220.4,52.1c2,0,3.7-1.6,3.7-3.7c0-2-1.6-3.7-3.7-3.7s-3.7,1.6-3.7,3.7C216.7,50.4,218.3,52.1,220.4,52.1z"/>
	<path class="st5" d="M268.4,101.7c2,0,3.7-1.6,3.7-3.7s-1.7-3.7-3.7-3.7s-3.7,1.6-3.7,3.7S266.4,101.7,268.4,101.7z"/>
	<path class="st5" d="M268.4,117.7c2,0,3.7-1.6,3.7-3.7s-1.7-3.7-3.7-3.7s-3.7,1.6-3.7,3.7S266.4,117.7,268.4,117.7z"/>
	<path class="st5" d="M272.1,130.1c0,0.7-0.2,1.4-0.6,2s-1,1.1-1.7,1.4c-0.7,0.3-1.4,0.4-2.1,0.2c-0.7-0.1-1.4-0.5-1.9-1
		c-0.5-0.5-0.9-1.2-1-1.9c-0.1-0.7-0.1-1.5,0.2-2.1c0.3-0.7,0.8-1.2,1.4-1.7c0.6-0.4,1.3-0.6,2-0.6c0.5,0,1,0.1,1.4,0.3
		c0.4,0.2,0.9,0.5,1.2,0.8c0.3,0.3,0.6,0.8,0.8,1.2C272,129.1,272.1,129.6,272.1,130.1L272.1,130.1z"/>
	<path class="st5" d="M220.4,52.1v46h17.4h27"/>
	<path class="st5" d="M264.7,114.1h-12.3v64.3"/>
	<path class="st5" d="M264.7,130.1h-4.8v48.3"/>
	<path class="st5" d="M264.7,66h-27v32v74"/>
	<path class="st5" d="M32.5,111c11.3,0,20.5-9.2,20.5-20.5c0-11.3-9.2-20.5-20.5-20.5S12,79.3,12,90.6C12,101.9,21.2,111,32.5,111z"
		/>
	<path class="st0" d="M12.5,123H50"/>
	<path class="st0" d="M12.5,135.1H50"/>
	<path class="st0" d="M12.5,147.1H50"/>
	<path class="st5" d="M81.7,251.5H44.9v16.6h36.9V251.5z"/>
	<path class="st5" d="M81.7,275.5H44.9v16.6h36.9V275.5z"/>
	<path class="st5" d="M81.7,299.5H44.9v46h36.9V299.5z"/>
	<path class="st5" d="M323.6,78.5c0,2.1-0.6,4.2-1.8,6c-1.2,1.8-2.9,3.1-4.8,4c-2,0.8-4.1,1-6.2,0.6s-4-1.4-5.5-2.9
		c-1.5-1.5-2.5-3.4-2.9-5.5c-0.4-2.1-0.2-4.3,0.6-6.2c0.8-2,2.2-3.6,4-4.8c1.8-1.2,3.8-1.8,6-1.8c2.9,0,5.6,1.1,7.6,3.1
		C322.4,72.9,323.6,75.6,323.6,78.5L323.6,78.5z"/>
	<path class="st0" d="M297.7,100.1H328"/>
	<path class="st0" d="M297.7,108.1H328"/>
	<path class="st5" d="M323.6,128.9c0,2.1-0.6,4.2-1.8,6c-1.2,1.8-2.9,3.1-4.8,4s-4.1,1-6.2,0.6c-2.1-0.4-4-1.4-5.5-2.9
		c-1.5-1.5-2.5-3.4-2.9-5.5c-0.4-2.1-0.2-4.2,0.6-6.2c0.8-2,2.2-3.6,4-4.8c1.8-1.2,3.9-1.8,6-1.8c1.4,0,2.8,0.3,4.1,0.8
		c1.3,0.5,2.5,1.3,3.5,2.3c1,1,1.8,2.2,2.3,3.5C323.3,126.1,323.6,127.5,323.6,128.9L323.6,128.9z"/>
	<path class="st0" d="M297.7,150.6H328"/>
	<path class="st0" d="M297.7,158.6H328"/>
	<path class="st5" d="M114.8,285.7h77.7"/>
</g>
</svg>
