<?xml version="1.0" encoding="utf-8"?>
<!-- Generator: Adobe Illustrator 25.4.1, SVG Export Plug-In . SVG Version: 6.00 Build 0)  -->
<svg version="1.1" id="Layer_1" xmlns="http://www.w3.org/2000/svg" xmlns:xlink="http://www.w3.org/1999/xlink" x="0px" y="0px"
	 viewBox="0 0 400 300" style="enable-background:new 0 0 400 300;" xml:space="preserve">
<style type="text/css">
	.st0{fill:#093F68;}
	.st1{fill:#FFFFFF;}
	.st2{fill:#0309B0;}
	.st3{fill:#DFEAEF;}
	.st4{fill:#F56132;}
	.st5{fill:#70CC40;}
	.st6{fill:#FFBC0E;}
</style>
<path class="st0" d="M200,213.1c-0.9,0-1.7-0.7-1.7-1.7v-58.8c0-0.9,0.7-1.7,1.7-1.7s1.7,0.7,1.7,1.7v58.9
	C201.6,212.4,200.9,213.1,200,213.1z"/>
<path class="st0" d="M331.2,205.2c-0.9,0-1.7-0.7-1.7-1.7v-21.4H70.4v21.4c0,0.9-0.7,1.7-1.7,1.7s-1.7-0.7-1.7-1.7v-23
	c0-0.9,0.7-1.7,1.7-1.7h262.5c0.9,0,1.7,0.7,1.7,1.7v23C332.9,204.5,332.1,205.2,331.2,205.2z"/>
<path class="st1" d="M109,211v59.3c0,4.1-3.4,7.5-7.5,7.5l0,0H35.9c-4.1,0-7.5-3.4-7.5-7.5l0,0V211c0-4.1,3.4-7.5,7.5-7.5l0,0h65.6
	C105.6,203.6,109,206.9,109,211L109,211z"/>
<path class="st0" d="M101.5,279.5H35.9c-5.1,0-9.2-4.1-9.2-9.2V211c0-5.1,4.1-9.2,9.2-9.2h65.6c5.1,0,9.2,4.1,9.2,9.2v59.3
	C110.6,275.4,106.6,279.5,101.5,279.5z M35.9,205.2c-3.2,0-5.8,2.6-5.8,5.8v59.3c0,3.2,2.6,5.8,5.8,5.8h65.6c3.2,0,5.8-2.6,5.8-5.8
	V211c0-3.2-2.6-5.8-5.8-5.8H35.9z"/>
<path class="st2" d="M109,211v6.8H28.5V211c0-4.1,3.4-7.5,7.5-7.5l0,0h65.6C105.6,203.6,109,206.9,109,211L109,211L109,211z"/>
<path class="st0" d="M109,219.5H28.5c-0.9,0-1.7-0.7-1.7-1.7V211c0-5.1,4.1-9.2,9.2-9.2h65.6c5.1,0,9.2,4.1,9.2,9.2v6.8
	C110.7,218.8,109.9,219.5,109,219.5L109,219.5z M30.1,216.2h77.2V211c0-3.2-2.6-5.8-5.8-5.8H35.9c-3.2,0-5.8,2.6-5.8,5.8L30.1,216.2
	z"/>
<path class="st3" d="M94.9,233.2H42.6c-0.9,0-1.7-0.7-1.7-1.7s0.7-1.7,1.7-1.7H95c0.9,0,1.7,0.7,1.7,1.7S95.9,233.2,94.9,233.2
	L94.9,233.2z"/>
<path class="st3" d="M94.9,244H42.6c-0.9,0-1.7-0.7-1.7-1.7c0-0.9,0.7-1.7,1.7-1.7H95c0.9,0,1.7,0.7,1.7,1.7
	C96.7,243.3,95.9,244,94.9,244L94.9,244z"/>
<path class="st2" d="M48.5,253H89c3.3,0,5.9,2.7,5.9,5.9l0,0c0,3.3-2.7,5.9-5.9,5.9H48.5c-3.3,0-5.9-2.7-5.9-5.9l0,0
	C42.5,255.7,45.2,253,48.5,253z"/>
<path class="st0" d="M89,266.6H48.5c-4.2,0-7.6-3.4-7.6-7.6s3.4-7.6,7.6-7.6l0,0H89c4.2,0,7.6,3.4,7.6,7.6S93.2,266.6,89,266.6z
	 M48.5,254.8c-2.4,0-4.3,1.9-4.3,4.3c0,2.4,1.9,4.3,4.3,4.3l0,0H89c2.4,0,4.3-1.9,4.3-4.3c0-2.4-1.9-4.3-4.3-4.3H48.5z"/>
<path class="st1" d="M240.1,211v59.3c0,4.1-3.3,7.5-7.5,7.5c0,0,0,0,0,0h-65.5c-4.1,0-7.5-3.3-7.5-7.5c0,0,0,0,0,0V211
	c0-4.1,3.3-7.5,7.5-7.5c0,0,0,0,0,0h65.6C236.8,203.6,240.2,206.9,240.1,211z"/>
<path class="st0" d="M232.7,279.5h-65.6c-5,0-9.1-4.1-9.1-9.2V211c0-5,4.1-9.1,9.1-9.2h65.6c5,0,9.1,4.1,9.1,9.2v59.3
	C241.9,275.4,237.8,279.5,232.7,279.5z M167.2,205.2c-3.2,0-5.8,2.6-5.8,5.8v59.3c0,3.2,2.6,5.8,5.8,5.8h65.6c3.2,0,5.8-2.6,5.8-5.8
	V211c0-3.2-2.6-5.8-5.8-5.8H167.2z"/>
<path class="st2" d="M240.1,211v6.8h-80.4V211c0-4.1,3.3-7.5,7.5-7.5c0,0,0,0,0,0h65.6C236.9,203.6,240.2,207,240.1,211L240.1,211z"
	/>
<path class="st0" d="M240.1,219.5h-80.4c-0.9,0-1.7-0.7-1.7-1.7V211c0-5,4.1-9.1,9.1-9.2h65.6c5,0,9.1,4.1,9.1,9.2v6.8
	c0,0.9-0.7,1.7-1.7,1.7C240.2,219.5,240.2,219.5,240.1,219.5L240.1,219.5z M161.3,216.2h77.2V211c0-3.2-2.6-5.8-5.8-5.8h-65.5
	c-3.2,0-5.8,2.6-5.8,5.8L161.3,216.2z"/>
<path class="st3" d="M226.2,233.2h-52.4c-0.9,0-1.7-0.7-1.7-1.7s0.7-1.7,1.7-1.7h52.4c0.9,0,1.7,0.7,1.7,1.7
	S227.1,233.2,226.2,233.2z"/>
<path class="st3" d="M226.2,244h-52.4c-0.9,0-1.7-0.7-1.7-1.7c0-0.9,0.7-1.7,1.7-1.7h52.4c0.9,0,1.7,0.7,1.7,1.7
	C227.9,243.3,227.1,244,226.2,244z"/>
<path class="st2" d="M179.7,253h40.5c3.3,0,5.9,2.7,5.9,5.9l0,0c0,3.3-2.7,5.9-5.9,5.9h-40.5c-3.3,0-5.9-2.7-5.9-5.9l0,0
	C173.7,255.7,176.4,253,179.7,253z"/>
<path class="st0" d="M220.2,266.6h-40.6c-4.2,0-7.6-3.4-7.6-7.6s3.4-7.6,7.6-7.6l0,0h40.6c4.2,0,7.6,3.4,7.6,7.6
	S224.4,266.6,220.2,266.6z M179.7,254.8c-2.4,0-4.3,1.9-4.3,4.3c0,2.4,1.9,4.3,4.3,4.3h40.6c2.4,0,4.3-1.9,4.3-4.3
	c0-2.4-1.9-4.3-4.3-4.3H179.7z"/>
<path class="st1" d="M371.5,211v59.3c0,4.1-3.4,7.5-7.5,7.5l0,0h-65.6c-4.1,0-7.5-3.4-7.5-7.5l0,0V211c0-4.1,3.4-7.5,7.5-7.5l0,0
	h65.6C368.2,203.6,371.5,206.9,371.5,211L371.5,211z"/>
<path class="st0" d="M364.1,279.5h-65.6c-5.1,0-9.2-4.1-9.2-9.2V211c0-5.1,4.1-9.2,9.2-9.2h65.6c5.1,0,9.2,4.1,9.2,9.2v59.3
	C373.2,275.4,369.1,279.5,364.1,279.5z M298.4,205.2c-3.2,0-5.8,2.6-5.8,5.8v59.3c0,3.2,2.6,5.8,5.8,5.8h65.6c3.2,0,5.8-2.6,5.8-5.8
	V211c0-3.2-2.6-5.8-5.8-5.8H298.4z"/>
<path class="st2" d="M371.5,211v6.8h-80.5V211c0-4.1,3.4-7.5,7.5-7.5l0,0h65.6C368.2,203.6,371.5,206.9,371.5,211L371.5,211z"/>
<path class="st0" d="M371.5,219.5h-80.5c-0.9,0-1.7-0.7-1.7-1.7V211c0-5.1,4.1-9.2,9.2-9.2h65.6c5.1,0,9.2,4.1,9.2,9.2v6.8
	C373.2,218.8,372.5,219.5,371.5,219.5C371.5,219.5,371.5,219.5,371.5,219.5L371.5,219.5z M292.6,216.2h77.2V211
	c0-3.2-2.6-5.8-5.8-5.8h-65.6c-3.2,0-5.8,2.6-5.8,5.8V216.2z"/>
<path class="st3" d="M357.4,233.2H305c-0.9,0-1.7-0.7-1.7-1.7s0.7-1.7,1.7-1.7h52.4c0.9,0,1.7,0.7,1.7,1.7S358.3,233.2,357.4,233.2z
	"/>
<path class="st3" d="M357.4,244H305c-0.9,0-1.7-0.7-1.7-1.7c0-0.9,0.7-1.7,1.7-1.7h52.4c0.9,0,1.7,0.7,1.7,1.7
	C359,243.3,358.3,244,357.4,244z"/>
<path class="st2" d="M310.9,253h40.5c3.3,0,5.9,2.7,5.9,5.9l0,0c0,3.3-2.7,5.9-5.9,5.9h-40.5c-3.3,0-5.9-2.7-5.9-5.9l0,0
	C305,255.7,307.6,253,310.9,253z"/>
<path class="st0" d="M351.5,266.6h-40.5c-4.2,0-7.6-3.4-7.6-7.6s3.4-7.6,7.6-7.6h40.5c4.2,0,7.6,3.4,7.6,7.6
	S355.7,266.6,351.5,266.6z M310.9,254.8c-2.4,0-4.3,1.9-4.3,4.3c0,2.4,1.9,4.3,4.3,4.3h40.5c2.4,0,4.3-1.9,4.3-4.3
	c0-2.4-1.9-4.3-4.3-4.3H310.9z"/>
<path class="st1" d="M308.8,27.7v118.6c0,5.7-4.6,10.3-10.3,10.3h-197c-5.7,0-10.3-4.6-10.3-10.3V27.7c0-5.7,4.6-10.3,10.3-10.3
	c0,0,0,0,0,0h196.9c5.7,0,10.4,4.5,10.4,10.2C308.8,27.6,308.8,27.7,308.8,27.7L308.8,27.7z"/>
<path class="st0" d="M298.4,158.3H101.5c-6.6,0-12-5.4-12-12V27.7c0-6.6,5.4-12,12-12h196.9c6.6,0,12,5.3,12.1,12c0,0,0,0,0,0v118.6
	C310.5,152.9,305.1,158.3,298.4,158.3C298.4,158.3,298.4,158.3,298.4,158.3z M101.5,19c-4.8,0-8.6,3.9-8.6,8.7v118.6
	c0,4.8,3.9,8.6,8.6,8.7h196.9c4.8,0,8.7-3.8,8.7-8.6c0,0,0,0,0-0.1V27.7c0-4.8-3.9-8.6-8.6-8.7L101.5,19z"/>
<path class="st2" d="M308.8,27.7v9.4H91.2v-9.4c0-5.7,4.6-10.3,10.3-10.3c0,0,0,0,0,0h196.9c5.7,0,10.4,4.5,10.4,10.2
	C308.8,27.6,308.8,27.7,308.8,27.7z"/>
<path class="st0" d="M308.8,38.8H91.2c-0.9,0-1.7-0.7-1.7-1.7v-9.4c0-6.6,5.4-12,12-12h196.9c6.6,0,12,5.3,12.1,12c0,0,0,0,0,0v9.4
	C310.5,38,309.7,38.8,308.8,38.8z M93,35.4h214.2v-7.7c0-4.8-3.9-8.6-8.6-8.7h-197c-4.8,0-8.6,3.9-8.6,8.7L93,35.4z"/>
<path class="st4" d="M110,53.8h45.6v45.6H110V53.8z"/>
<path class="st0" d="M155.6,101.1H110c-0.9,0-1.7-0.7-1.7-1.7V53.8c0-0.9,0.7-1.7,1.7-1.7h45.6c0.9,0,1.7,0.7,1.7,1.7v45.5
	C157.3,100.3,156.5,101.1,155.6,101.1z M111.7,97.7h42.2V55.5h-42.2V97.7z"/>
<g>
	<path class="st3" d="M155.6,117.5H110c-0.9,0-1.7-0.7-1.7-1.7s0.7-1.7,1.7-1.7h45.6c0.9,0,1.7,0.7,1.7,1.7S156.5,117.5,155.6,117.5
		z"/>
	<path class="st3" d="M155.6,127.2H110c-0.9,0-1.7-0.7-1.7-1.7s0.7-1.7,1.7-1.7h45.6c0.9,0,1.7,0.7,1.7,1.7S156.5,127.2,155.6,127.2
		z"/>
	<path class="st3" d="M149,137h-32.5c-0.9,0-1.7-0.7-1.7-1.7c0-0.9,0.7-1.7,1.7-1.7H149c0.9,0,1.7,0.7,1.7,1.7
		C150.7,136.2,150,137,149,137z"/>
</g>
<path class="st0" d="M110,101.1c-0.4,0-0.9-0.2-1.2-0.5c-0.6-0.7-0.6-1.7,0-2.4l45.6-45.6c0.7-0.6,1.8-0.5,2.4,0.2
	c0.5,0.6,0.5,1.6,0,2.2l-45.6,45.6C110.9,100.9,110.5,101.1,110,101.1z"/>
<path class="st0" d="M155.6,101.1c-0.4,0-0.9-0.2-1.2-0.5L108.8,55c-0.7-0.7-0.6-1.7,0-2.4s1.7-0.6,2.4,0l45.6,45.6
	c0.6,0.7,0.6,1.7,0,2.4C156.5,100.9,156,101.1,155.6,101.1z"/>
<path class="st5" d="M177.2,53.8h45.6v45.6h-45.6V53.8z"/>
<path class="st0" d="M222.7,101.1h-45.6c-0.9,0-1.7-0.7-1.7-1.7V53.8c0-0.9,0.7-1.7,1.7-1.7h45.6c0.9,0,1.7,0.7,1.7,1.7v45.5
	C224.4,100.3,223.7,101.1,222.7,101.1z M178.8,97.7h42.2V55.5h-42.2V97.7z"/>
<path class="st3" d="M222.7,117.5h-45.6c-0.9,0-1.7-0.7-1.7-1.7s0.7-1.7,1.7-1.7h45.6c0.9,0,1.7,0.7,1.7,1.7
	S223.7,117.5,222.7,117.5z"/>
<path class="st3" d="M222.7,127.2h-45.6c-0.9,0-1.7-0.7-1.7-1.7s0.7-1.7,1.7-1.7h45.6c0.9,0,1.7,0.7,1.7,1.7
	S223.7,127.2,222.7,127.2z"/>
<path class="st3" d="M216.2,137h-32.5c-0.9,0-1.7-0.7-1.7-1.7c0-0.9,0.7-1.7,1.7-1.7h32.5c0.9,0,1.7,0.7,1.7,1.7
	C217.9,136.2,217.1,137,216.2,137z"/>
<path class="st0" d="M177.2,101.1c-0.4,0-0.9-0.2-1.2-0.5c-0.6-0.7-0.6-1.7,0-2.4l45.6-45.6c0.6-0.7,1.7-0.8,2.4-0.2
	c0.7,0.6,0.8,1.7,0.2,2.4c-0.1,0.1-0.1,0.1-0.2,0.2l-45.6,45.6C178,100.9,177.6,101.1,177.2,101.1z"/>
<path class="st0" d="M222.7,101.1c-0.4,0-0.9-0.2-1.2-0.5L176,55c-0.7-0.6-0.8-1.7-0.2-2.4s1.7-0.8,2.4-0.2c0.1,0.1,0.1,0.1,0.2,0.2
	l45.6,45.6c0.6,0.7,0.6,1.7,0,2.4C223.6,100.9,223.2,101.1,222.7,101.1z"/>
<path class="st6" d="M244.3,53.8h45.6v45.6h-45.6V53.8z"/>
<path class="st0" d="M289.9,101.1h-45.6c-0.9,0-1.7-0.7-1.7-1.7V53.8c0-0.9,0.7-1.7,1.7-1.7h45.6c0.9,0,1.7,0.7,1.7,1.7v45.5
	C291.6,100.3,290.8,101.1,289.9,101.1z M246,97.7h42.2V55.5H246V97.7z"/>
<path class="st3" d="M289.9,117.5h-45.6c-0.9,0-1.7-0.7-1.7-1.7s0.7-1.7,1.7-1.7h45.6c0.9,0,1.7,0.7,1.7,1.7
	S290.8,117.5,289.9,117.5z"/>
<path class="st3" d="M289.9,127.2h-45.6c-0.9,0-1.7-0.7-1.7-1.7s0.7-1.7,1.7-1.7h45.6c0.9,0,1.7,0.7,1.7,1.7
	S290.8,127.2,289.9,127.2z"/>
<path class="st3" d="M283.4,137h-32.5c-0.9,0-1.7-0.7-1.7-1.7c0-0.9,0.7-1.7,1.7-1.7h32.5c0.9,0,1.7,0.7,1.7,1.7
	C285,136.2,284.3,137,283.4,137z"/>
<path class="st0" d="M244.3,101.1c-0.4,0-0.9-0.2-1.2-0.5c-0.6-0.7-0.6-1.7,0-2.4l45.6-45.6c0.6-0.7,1.7-0.8,2.4-0.2
	c0.7,0.6,0.8,1.7,0.2,2.4c-0.1,0.1-0.1,0.1-0.2,0.2l-45.6,45.6C245.2,100.9,244.8,101.1,244.3,101.1L244.3,101.1z"/>
<path class="st0" d="M289.9,101.1c-0.4,0-0.9-0.2-1.2-0.5L243.1,55c-0.6-0.7-0.5-1.8,0.2-2.4c0.6-0.5,1.6-0.5,2.2,0l45.6,45.6
	c0.6,0.7,0.6,1.7,0,2.4C290.8,100.9,290.4,101.1,289.9,101.1z"/>
</svg>
